<svg xmlns="http://www.w3.org/2000/svg" viewBox="0 0 1920 960"><title>hea</title><g id="template"><g id="Contornos"><path d="M181.86,879H161.07V845h4.71v29.61h16.08Z" style="fill:#2b2b2b"/><path d="M185.62,849.49a3.13,3.13,0,0,1-.93-2.28,3.2,3.2,0,0,1,.93-2.31,3.08,3.08,0,0,1,2.28-1,3.17,3.17,0,0,1,2.31.94,3.11,3.11,0,0,1,1,2.33,3.08,3.08,0,0,1-1,2.28,3.2,3.2,0,0,1-2.31.93A3.13,3.13,0,0,1,185.62,849.49ZM190.16,879H185.7V855.94h4.46Z" style="fill:#2b2b2b"/><path d="M195,880.28l4.37-1a6.2,6.2,0,0,0,2,4.06,6.13,6.13,0,0,0,4.33,1.6q7,0,7-7.48v-3.32a6.67,6.67,0,0,1-2.71,2.74,8.64,8.64,0,0,1-4.34,1,10,10,0,0,1-7.61-3.14,11.17,11.17,0,0,1-3-8,11.38,11.38,0,0,1,3-8,9.92,9.92,0,0,1,7.64-3.24q5.26,0,7.1,3.65v-3.22h4.46V877.3a14.85,14.85,0,0,1-.6,4.3,11.44,11.44,0,0,1-1.89,3.67,8.59,8.59,0,0,1-3.63,2.64,14.21,14.21,0,0,1-5.44,1,11.13,11.13,0,0,1-7.25-2.42A9,9,0,0,1,195,880.28Zm11.33-6.15a6.08,6.08,0,0,0,4.75-2,8.77,8.77,0,0,0,0-10.7,6.08,6.08,0,0,0-4.75-2,6.22,6.22,0,0,0-4.83,2,7.63,7.63,0,0,0-1.84,5.37,7.71,7.71,0,0,0,1.8,5.4A6.22,6.22,0,0,0,206.29,874.13Z" style="fill:#2b2b2b"/><path d="M227.69,865.45V879h-4.51V844.28h4.51v14.35a7.94,7.94,0,0,1,7-3.36,7.55,7.55,0,0,1,6.12,2.54,9.86,9.86,0,0,1,2.14,6.58V879h-4.51V865.16c0-3.87-1.8-5.81-5.38-5.81a4.77,4.77,0,0,0-3.89,1.7A7.18,7.18,0,0,0,227.69,865.45Z" style="fill:#2b2b2b"/><path d="M255,848.65v7.29h5V860h-5v12a2.74,2.74,0,0,0,3.21,3.17A7.83,7.83,0,0,0,260,875v3.84a9.15,9.15,0,0,1-3.07.43,6.37,6.37,0,0,1-4.71-1.73,6.57,6.57,0,0,1-1.73-4.85V860h-4.41v-4.08h1.25a3.42,3.42,0,0,0,2.66-1,3.7,3.7,0,0,0,.89-2.57v-3.74Z" style="fill:#2b2b2b"/><path d="M278.29,855.94h4.65l6,17.38L294,855.94h4.75L291.29,879h-4.65l-6.15-17.57-6,17.57h-4.75l-7.58-23.09h4.94l5.19,17.38Z" style="fill:#2b2b2b"/><path d="M317.89,871.11l3.88,1.34a10.21,10.21,0,0,1-3.74,5.26,10.75,10.75,0,0,1-6.62,2,11.28,11.28,0,0,1-8.24-3.34,12.07,12.07,0,0,1-3.38-9,12.22,12.22,0,0,1,3.26-8.73,11.09,11.09,0,0,1,15.94-.17,12.77,12.77,0,0,1,2.93,8.81,8.39,8.39,0,0,1-.1,1.44H304.45a6.92,6.92,0,0,0,2,5,6.7,6.7,0,0,0,4.92,2A6.25,6.25,0,0,0,317.89,871.11Zm-13.3-6h12.62a5.8,5.8,0,0,0-6.33-5.9,5.94,5.94,0,0,0-4.42,1.75A6.3,6.3,0,0,0,304.59,865.11Z" style="fill:#2b2b2b"/><path d="M326.41,849.49a3.1,3.1,0,0,1-.94-2.28,3.17,3.17,0,0,1,.94-2.31,3.05,3.05,0,0,1,2.28-1,3.16,3.16,0,0,1,2.3.94,3.11,3.11,0,0,1,1,2.33,3.08,3.08,0,0,1-1,2.28,3.19,3.19,0,0,1-2.3.93A3.1,3.1,0,0,1,326.41,849.49ZM330.94,879h-4.46V855.94h4.46Z" style="fill:#2b2b2b"/><path d="M335.74,880.28l4.37-1a6.21,6.21,0,0,0,2,4.06,6.09,6.09,0,0,0,4.32,1.6q7.05,0,7.05-7.48v-3.32a6.61,6.61,0,0,1-2.71,2.74,8.64,8.64,0,0,1-4.34,1,10.05,10.05,0,0,1-7.61-3.14,11.17,11.17,0,0,1-3-8,11.34,11.34,0,0,1,3-8,9.88,9.88,0,0,1,7.63-3.24q5.28,0,7.1,3.65v-3.22H358V877.3a15.2,15.2,0,0,1-.59,4.3,11.67,11.67,0,0,1-1.9,3.67,8.55,8.55,0,0,1-3.62,2.64,14.26,14.26,0,0,1-5.45,1,11.13,11.13,0,0,1-7.25-2.42A9,9,0,0,1,335.74,880.28Zm11.33-6.15a6.08,6.08,0,0,0,4.75-2,8.77,8.77,0,0,0,0-10.7,6.08,6.08,0,0,0-4.75-2,6.2,6.2,0,0,0-4.82,2,7.59,7.59,0,0,0-1.85,5.37,7.76,7.76,0,0,0,1.8,5.4A6.22,6.22,0,0,0,347.07,874.13Z" style="fill:#2b2b2b"/><path d="M368.48,865.45V879H364V844.28h4.52v14.35a7.91,7.91,0,0,1,7-3.36,7.55,7.55,0,0,1,6.12,2.54,9.86,9.86,0,0,1,2.14,6.58V879h-4.51V865.16q0-5.8-5.38-5.81a4.77,4.77,0,0,0-3.89,1.7A7.18,7.18,0,0,0,368.48,865.45Z" style="fill:#2b2b2b"/><path d="M395.79,848.65v7.29h5V860h-5v12a2.74,2.74,0,0,0,3.21,3.17,7.77,7.77,0,0,0,1.78-.19v3.84a9.15,9.15,0,0,1-3.07.43,6.38,6.38,0,0,1-4.71-1.73,6.56,6.56,0,0,1-1.72-4.85V860h-4.42v-4.08h1.25a3.42,3.42,0,0,0,2.66-1,3.7,3.7,0,0,0,.89-2.57v-3.74Z" style="fill:#2b2b2b"/><path d="M414.94,872.84a6.24,6.24,0,0,1,1.92-4.78,9,9,0,0,1,5.09-2.23l6.24-.91c1.18-.16,1.77-.74,1.77-1.73a3.87,3.87,0,0,0-1.24-3,5.41,5.41,0,0,0-3.75-1.15,5.15,5.15,0,0,0-3.65,1.27,5.35,5.35,0,0,0-1.58,3.39l-4.32-1a7.54,7.54,0,0,1,3-5.4,10.22,10.22,0,0,1,6.44-2.09c3.26,0,5.68.79,7.24,2.38a8.26,8.26,0,0,1,2.36,6.07v11.57a23.4,23.4,0,0,0,.28,3.79h-4.41a19,19,0,0,1-.24-3.12,8.42,8.42,0,0,1-7.44,3.84,7.79,7.79,0,0,1-5.57-2A6.46,6.46,0,0,1,414.94,872.84Zm8.35,3.12a7,7,0,0,0,4.85-1.63c1.22-1.09,1.82-2.82,1.82-5.19v-1.06l-7,1.06a4.43,4.43,0,0,0-2.45,1.11,3.07,3.07,0,0,0-.91,2.35,3.18,3.18,0,0,0,1,2.35A3.72,3.72,0,0,0,423.29,876Z" style="fill:#2b2b2b"/><path d="M444.8,865.68V879h-4.52V855.94h4.42v3.31a7.66,7.66,0,0,1,7.1-4,7.55,7.55,0,0,1,6.12,2.54,9.86,9.86,0,0,1,2.14,6.58V879h-4.51V865.16q0-5.8-5.38-5.81a4.77,4.77,0,0,0-4,1.8A7.12,7.12,0,0,0,444.8,865.68Z" style="fill:#2b2b2b"/><path d="M482.24,875.91v-.38a7.69,7.69,0,0,1-2.76,3,8.07,8.07,0,0,1-4.4,1.17,10,10,0,0,1-7.94-3.48,12.94,12.94,0,0,1-3-8.76,12.6,12.6,0,0,1,3.07-8.57,10,10,0,0,1,7.87-3.52,8.4,8.4,0,0,1,4.61,1.13,6,6,0,0,1,2.45,2.76V844.28h4.46v30.48a34.59,34.59,0,0,0,.24,4.27h-4.36A18,18,0,0,1,482.24,875.91Zm-13.49-8.5a9.4,9.4,0,0,0,1.8,6,6,6,0,0,0,5,2.3,5.81,5.81,0,0,0,4.84-2.35,9.49,9.49,0,0,0,1.83-6,9,9,0,0,0-1.78-5.81,5.89,5.89,0,0,0-4.85-2.21,6.1,6.1,0,0,0-4.94,2.26A8.83,8.83,0,0,0,468.75,867.41Z" style="fill:#2b2b2b"/><path d="M508.35,888.15h-4.47V855.94h4.37v3.6a7.67,7.67,0,0,1,3-3,9.28,9.28,0,0,1,4.7-1.16,9.55,9.55,0,0,1,7.8,3.41,14.63,14.63,0,0,1-.1,17.38,9.71,9.71,0,0,1-7.84,3.45,9.45,9.45,0,0,1-4.52-1,7.65,7.65,0,0,1-3-2.69ZM522,867.46a8.9,8.9,0,0,0-1.85-5.78,6.06,6.06,0,0,0-5-2.28,6.14,6.14,0,0,0-5,2.28,8.71,8.71,0,0,0-1.9,5.78,8.86,8.86,0,0,0,1.9,5.88,6.52,6.52,0,0,0,9.91,0A9,9,0,0,0,522,867.46Z" style="fill:#2b2b2b"/><path d="M532.56,858.7a12.06,12.06,0,0,1,17,0,13.28,13.28,0,0,1,0,17.57,12.11,12.11,0,0,1-17,0,13.28,13.28,0,0,1,0-17.57Zm3.36,14.83a7.07,7.07,0,0,0,10.23,0,9.79,9.79,0,0,0,0-12.09,7.07,7.07,0,0,0-10.23,0,9.79,9.79,0,0,0,0,12.09Z" style="fill:#2b2b2b"/><path d="M569.93,855.94h4.66l6,17.38,5.08-17.38h4.76L582.94,879h-4.66l-6.14-17.57-6,17.57h-4.75l-7.59-23.09h5l5.18,17.38Z" style="fill:#2b2b2b"/><path d="M609.53,871.11l3.89,1.34a10.21,10.21,0,0,1-3.74,5.26,10.8,10.8,0,0,1-6.63,2,11.27,11.27,0,0,1-8.23-3.34,12,12,0,0,1-3.38-9,12.18,12.18,0,0,1,3.26-8.73,11.08,11.08,0,0,1,15.93-.17c2,2.19,2.93,5.13,2.93,8.81a9.69,9.69,0,0,1-.09,1.44H596.09a6.92,6.92,0,0,0,2,5,6.73,6.73,0,0,0,4.92,2A6.23,6.23,0,0,0,609.53,871.11Zm-13.29-6h12.62a5.81,5.81,0,0,0-6.34-5.9,5.91,5.91,0,0,0-4.41,1.75A6.26,6.26,0,0,0,596.24,865.11Z" style="fill:#2b2b2b"/><path d="M630.94,855.7v4.8a14.85,14.85,0,0,0-2-.14q-6.33,0-6.34,7.1V879h-4.51V855.94h4.42v4a7.15,7.15,0,0,1,6.91-4.41A8.1,8.1,0,0,1,630.94,855.7Z" style="fill:#2b2b2b"/><path d="M647.35,860h-5.56v19h-4.66V860h-4.27v-4.08h4.27v-3.89a7.72,7.72,0,0,1,2.16-5.8,7.44,7.44,0,0,1,5.42-2.12,4.92,4.92,0,0,1,2.69.48v4a5.25,5.25,0,0,0-2-.29,3.86,3.86,0,0,0-2.56.89,3.73,3.73,0,0,0-1.08,3v3.65h5.56Z" style="fill:#2b2b2b"/><path d="M666,876.25a5.91,5.91,0,0,1-2.79,2.61,9.28,9.28,0,0,1-4,.89,8,8,0,0,1-6.29-2.62,9.59,9.59,0,0,1-2.35-6.64V855.94H655v13.87a6.86,6.86,0,0,0,1.28,4.27,4.6,4.6,0,0,0,4,1.68,5.11,5.11,0,0,0,4.08-1.6,6.4,6.4,0,0,0,1.39-4.3V855.94h4.51v18.82a36.26,36.26,0,0,0,.24,4.27h-4.32A15.94,15.94,0,0,1,666,876.25Z" style="fill:#2b2b2b"/><path d="M681.24,879h-4.51V844.28h4.51Z" style="fill:#2b2b2b"/><path d="M725.79,879h-4.71V863.91H703.71V879H699V845h4.71v14.54h17.37V845h4.71Z" style="fill:#2b2b2b"/><path d="M756.84,849.37H745.46V879h-4.7V849.37H729.38V845h27.46Z" style="fill:#2b2b2b"/><path d="M797.21,879h-4.66v-26.5L780.94,879h-4.32l-11.52-26.5V879h-4.66V845h6.38l12,27.69L790.92,845h6.29Z" style="fill:#2b2b2b"/><path d="M825.43,879H804.65V845h4.7v29.61h16.08Z" style="fill:#2b2b2b"/><path d="M846.12,848.65v7.29h5V860h-5v12a2.74,2.74,0,0,0,3.22,3.17,7.74,7.74,0,0,0,1.77-.19v3.84a9.15,9.15,0,0,1-3.07.43,6.36,6.36,0,0,1-4.7-1.73,6.53,6.53,0,0,1-1.73-4.85V860h-4.42v-4.08h1.25a3.42,3.42,0,0,0,2.66-1,3.66,3.66,0,0,0,.89-2.57v-3.74Z" style="fill:#2b2b2b"/><path d="M871.9,871.11l3.89,1.34a10.23,10.23,0,0,1-3.75,5.26,10.75,10.75,0,0,1-6.62,2,11.28,11.28,0,0,1-8.24-3.34,12.07,12.07,0,0,1-3.38-9,12.22,12.22,0,0,1,3.26-8.73,11.09,11.09,0,0,1,15.94-.17,12.77,12.77,0,0,1,2.93,8.81,8.39,8.39,0,0,1-.1,1.44H858.46a6.92,6.92,0,0,0,2,5,6.7,6.7,0,0,0,4.92,2A6.25,6.25,0,0,0,871.9,871.11Zm-13.3-6h12.62a5.8,5.8,0,0,0-6.33-5.9,5.94,5.94,0,0,0-4.42,1.75A6.3,6.3,0,0,0,858.6,865.11Z" style="fill:#2b2b2b"/><path d="M885,879h-4.46V855.94h4.32V859a6.94,6.94,0,0,1,3-2.78,8.93,8.93,0,0,1,4-1,8,8,0,0,1,4.12,1.1,6.72,6.72,0,0,1,2.79,3.27,8.17,8.17,0,0,1,7.73-4.37,7.81,7.81,0,0,1,5.64,2.26c1.55,1.5,2.32,3.68,2.32,6.52v15H910v-14.5a5.76,5.76,0,0,0-1.22-3.84,4.56,4.56,0,0,0-3.68-1.44,4.92,4.92,0,0,0-3.84,1.66,6,6,0,0,0-1.48,4.15v14h-4.52v-14.5a5.71,5.71,0,0,0-1.22-3.84,4.56,4.56,0,0,0-3.67-1.44,5,5,0,0,0-3.89,1.63,6.05,6.05,0,0,0-1.49,4.23Z" style="fill:#2b2b2b"/><path d="M924.89,888.15h-4.47V855.94h4.37v3.6a7.67,7.67,0,0,1,3-3,9.28,9.28,0,0,1,4.7-1.16,9.55,9.55,0,0,1,7.8,3.41,14.63,14.63,0,0,1-.1,17.38,9.71,9.71,0,0,1-7.84,3.45,9.48,9.48,0,0,1-4.52-1,7.65,7.65,0,0,1-3-2.69Zm13.63-20.69a8.9,8.9,0,0,0-1.85-5.78,6.06,6.06,0,0,0-5-2.28,6.14,6.14,0,0,0-5,2.28,8.71,8.71,0,0,0-1.9,5.78,8.86,8.86,0,0,0,1.9,5.88,6.52,6.52,0,0,0,9.91,0A9,9,0,0,0,938.52,867.46Z" style="fill:#2b2b2b"/><path d="M952.2,879h-4.51V844.28h4.51Z" style="fill:#2b2b2b"/><path d="M957.24,872.84a6.24,6.24,0,0,1,1.92-4.78,9,9,0,0,1,5.09-2.23l6.24-.91c1.18-.16,1.77-.74,1.77-1.73a3.85,3.85,0,0,0-1.25-3,5.38,5.38,0,0,0-3.74-1.15,5.15,5.15,0,0,0-3.65,1.27,5.35,5.35,0,0,0-1.58,3.39l-4.32-1a7.54,7.54,0,0,1,3-5.4,10.19,10.19,0,0,1,6.43-2.09c3.27,0,5.68.79,7.25,2.38a8.25,8.25,0,0,1,2.35,6.07v11.57a23.35,23.35,0,0,0,.29,3.79h-4.41a19,19,0,0,1-.24-3.12,8.42,8.42,0,0,1-7.44,3.84,7.77,7.77,0,0,1-5.57-2A6.46,6.46,0,0,1,957.24,872.84Zm8.35,3.12a7,7,0,0,0,4.85-1.63q1.81-1.64,1.82-5.19v-1.06l-7,1.06a4.43,4.43,0,0,0-2.45,1.11,3.07,3.07,0,0,0-.91,2.35,3.18,3.18,0,0,0,1,2.35A3.72,3.72,0,0,0,965.59,876Z" style="fill:#2b2b2b"/><path d="M988.63,848.65v7.29h5V860h-5v12a2.75,2.75,0,0,0,3.22,3.17,7.74,7.74,0,0,0,1.77-.19v3.84a9.11,9.11,0,0,1-3.07.43,6.36,6.36,0,0,1-4.7-1.73,6.57,6.57,0,0,1-1.73-4.85V860H979.7v-4.08H981a3.46,3.46,0,0,0,2.67-1,3.7,3.7,0,0,0,.88-2.57v-3.74Z" style="fill:#2b2b2b"/><path d="M1014.41,871.11l3.88,1.34a10.16,10.16,0,0,1-3.74,5.26,10.75,10.75,0,0,1-6.62,2,11.28,11.28,0,0,1-8.24-3.34,13.48,13.48,0,0,1-.11-17.73,11.08,11.08,0,0,1,15.93-.17,12.77,12.77,0,0,1,2.93,8.81,8.39,8.39,0,0,1-.1,1.44H1001a6.92,6.92,0,0,0,2,5,6.7,6.7,0,0,0,4.92,2A6.25,6.25,0,0,0,1014.41,871.11Zm-13.3-6h12.62a5.8,5.8,0,0,0-6.33-5.9A5.94,5.94,0,0,0,1003,861,6.3,6.3,0,0,0,1001.11,865.11Z" style="fill:#2b2b2b"/><path d="M1050,871.11l3.89,1.34a10.21,10.21,0,0,1-3.74,5.26,10.8,10.8,0,0,1-6.63,2,11.27,11.27,0,0,1-8.23-3.34,12,12,0,0,1-3.38-9,12.18,12.18,0,0,1,3.26-8.73,11.09,11.09,0,0,1,15.94-.17q2.92,3.29,2.92,8.81a9.69,9.69,0,0,1-.09,1.44h-17.38a6.92,6.92,0,0,0,2,5,6.73,6.73,0,0,0,4.92,2A6.23,6.23,0,0,0,1050,871.11Zm-13.29-6h12.62a6.11,6.11,0,0,0-1.73-4.25,6.17,6.17,0,0,0-4.61-1.65,5.91,5.91,0,0,0-4.41,1.75A6.26,6.26,0,0,0,1036.73,865.11Z" style="fill:#2b2b2b"/><path d="M1063.13,865.68V879h-4.52V855.94H1063v3.31a7.66,7.66,0,0,1,7.1-4,7.55,7.55,0,0,1,6.12,2.54,9.86,9.86,0,0,1,2.14,6.58V879h-4.51V865.16q0-5.8-5.38-5.81a4.77,4.77,0,0,0-4,1.8A7.12,7.12,0,0,0,1063.13,865.68Z" style="fill:#2b2b2b"/><path d="M1082.71,880.28l4.37-1a6.17,6.17,0,0,0,2,4.06,6.09,6.09,0,0,0,4.32,1.6q7.05,0,7.05-7.48v-3.32a6.61,6.61,0,0,1-2.71,2.74,8.64,8.64,0,0,1-4.34,1,10,10,0,0,1-7.61-3.14,11.17,11.17,0,0,1-3-8,11.38,11.38,0,0,1,3-8,9.92,9.92,0,0,1,7.64-3.24c3.52,0,5.88,1.22,7.1,3.65v-3.22h4.46V877.3a14.85,14.85,0,0,1-.6,4.3,11.44,11.44,0,0,1-1.89,3.67,8.59,8.59,0,0,1-3.63,2.64,14.17,14.17,0,0,1-5.44,1,11.13,11.13,0,0,1-7.25-2.42A9,9,0,0,1,1082.71,880.28Zm11.33-6.15a6.08,6.08,0,0,0,4.75-2,8.77,8.77,0,0,0,0-10.7,6.08,6.08,0,0,0-4.75-2,6.24,6.24,0,0,0-4.83,2,7.63,7.63,0,0,0-1.84,5.37,7.76,7.76,0,0,0,1.8,5.4A6.22,6.22,0,0,0,1094,874.13Z" style="fill:#2b2b2b"/><path d="M1110.86,849.49a3.13,3.13,0,0,1-.93-2.28,3.2,3.2,0,0,1,.93-2.31,3.08,3.08,0,0,1,2.28-1,3.17,3.17,0,0,1,2.31.94,3.11,3.11,0,0,1,1,2.33,3.08,3.08,0,0,1-1,2.28,3.2,3.2,0,0,1-2.31.93A3.13,3.13,0,0,1,1110.86,849.49ZM1115.4,879h-4.47V855.94h4.47Z" style="fill:#2b2b2b"/><path d="M1126.39,865.68V879h-4.51V855.94h4.41v3.31a7.67,7.67,0,0,1,7.11-4,7.58,7.58,0,0,1,6.12,2.54,9.91,9.91,0,0,1,2.13,6.58V879h-4.51V865.16q0-5.8-5.38-5.81a4.77,4.77,0,0,0-4,1.8A7.12,7.12,0,0,0,1126.39,865.68Z" style="fill:#2b2b2b"/><path d="M1163.88,871.11l3.88,1.34a10.21,10.21,0,0,1-3.74,5.26,10.75,10.75,0,0,1-6.62,2,11.28,11.28,0,0,1-8.24-3.34,12.07,12.07,0,0,1-3.38-9,12.22,12.22,0,0,1,3.26-8.73,11.09,11.09,0,0,1,15.94-.17,12.77,12.77,0,0,1,2.93,8.81,8.39,8.39,0,0,1-.1,1.44h-17.37a6.92,6.92,0,0,0,2,5,6.7,6.7,0,0,0,4.92,2A6.25,6.25,0,0,0,1163.88,871.11Zm-13.3-6h12.62a5.8,5.8,0,0,0-6.33-5.9,5.94,5.94,0,0,0-4.42,1.75A6.3,6.3,0,0,0,1150.58,865.11Z" style="fill:#2b2b2b"/><path d="M1194.88,860h-5.56v19h-4.66V860h-4.27v-4.08h4.27v-3.89a7.72,7.72,0,0,1,2.16-5.8,7.45,7.45,0,0,1,5.43-2.12,4.9,4.9,0,0,1,2.68.48v4a5.25,5.25,0,0,0-2-.29,3.86,3.86,0,0,0-2.56.89,3.73,3.73,0,0,0-1.08,3v3.65h5.56Z" style="fill:#2b2b2b"/><path d="M1199,858.7a12,12,0,0,1,16.94,0,12.13,12.13,0,0,1,3.34,8.76,12.3,12.3,0,0,1-3.31,8.81,12.12,12.12,0,0,1-17,0,12.3,12.3,0,0,1-3.31-8.81A12.13,12.13,0,0,1,1199,858.7Zm3.36,14.83a7.06,7.06,0,0,0,10.22,0,9.79,9.79,0,0,0,0-12.09,7.06,7.06,0,0,0-10.22,0,9.79,9.79,0,0,0,0,12.09Z" style="fill:#2b2b2b"/><path d="M1236.64,855.7v4.8a14.7,14.7,0,0,0-2-.14q-6.35,0-6.34,7.1V879h-4.51V855.94h4.41v4a7.17,7.17,0,0,1,6.92-4.41A8,8,0,0,1,1236.64,855.7Z" style="fill:#2b2b2b"/><path d="M1270.82,855.94,1261.6,879H1257l-9.36-23.09h5.09l6.58,17.81,6.62-17.81Z" style="fill:#2b2b2b"/><path d="M1272.26,872.84a6.24,6.24,0,0,1,1.92-4.78,9,9,0,0,1,5.09-2.23l6.24-.91c1.18-.16,1.77-.74,1.77-1.73a3.87,3.87,0,0,0-1.24-3,5.41,5.41,0,0,0-3.75-1.15,5.15,5.15,0,0,0-3.65,1.27,5.35,5.35,0,0,0-1.58,3.39l-4.32-1a7.54,7.54,0,0,1,3-5.4,10.22,10.22,0,0,1,6.44-2.09c3.26,0,5.68.79,7.24,2.38a8.26,8.26,0,0,1,2.36,6.07v11.57a23.4,23.4,0,0,0,.28,3.79h-4.41a19,19,0,0,1-.24-3.12,8.42,8.42,0,0,1-7.44,3.84,7.79,7.79,0,0,1-5.57-2A6.46,6.46,0,0,1,1272.26,872.84Zm8.35,3.12a7,7,0,0,0,4.85-1.63c1.22-1.09,1.82-2.82,1.82-5.19v-1.06l-7,1.06a4.43,4.43,0,0,0-2.45,1.11,3.07,3.07,0,0,0-.91,2.35,3.18,3.18,0,0,0,1,2.35A3.72,3.72,0,0,0,1280.61,876Z" style="fill:#2b2b2b"/><path d="M1302.12,865.68V879h-4.52V855.94H1302v3.31a7.66,7.66,0,0,1,7.1-4,7.55,7.55,0,0,1,6.12,2.54,9.86,9.86,0,0,1,2.14,6.58V879h-4.51V865.16q0-5.8-5.38-5.81a4.76,4.76,0,0,0-4,1.8A7.12,7.12,0,0,0,1302.12,865.68Z" style="fill:#2b2b2b"/><path d="M1323.31,849.49a3.1,3.1,0,0,1-.94-2.28,3.17,3.17,0,0,1,.94-2.31,3.05,3.05,0,0,1,2.28-1,3.16,3.16,0,0,1,2.3.94,3.11,3.11,0,0,1,1,2.33,3.08,3.08,0,0,1-1,2.28,3.19,3.19,0,0,1-2.3.93A3.1,3.1,0,0,1,1323.31,849.49Zm4.53,29.54h-4.46V855.94h4.46Z" style="fill:#2b2b2b"/><path d="M1338.83,879h-4.51V844.28h4.51Z" style="fill:#2b2b2b"/><path d="M1349.83,879h-4.52V844.28h4.52Z" style="fill:#2b2b2b"/><path d="M1354.87,872.84a6.24,6.24,0,0,1,1.92-4.78,9,9,0,0,1,5.09-2.23l6.24-.91c1.18-.16,1.77-.74,1.77-1.73a3.88,3.88,0,0,0-1.25-3,5.38,5.38,0,0,0-3.74-1.15,5.13,5.13,0,0,0-3.65,1.27,5.3,5.3,0,0,0-1.58,3.39l-4.32-1a7.54,7.54,0,0,1,3-5.4,10.19,10.19,0,0,1,6.43-2.09c3.27,0,5.68.79,7.25,2.38a8.25,8.25,0,0,1,2.35,6.07v11.57a23.35,23.35,0,0,0,.29,3.79h-4.42a19.05,19.05,0,0,1-.23-3.12,8.76,8.76,0,0,1-2.81,2.69,8.63,8.63,0,0,1-4.64,1.15,7.76,7.76,0,0,1-5.56-2A6.46,6.46,0,0,1,1354.87,872.84Zm8.35,3.12a7.06,7.06,0,0,0,4.85-1.63q1.82-1.64,1.82-5.19v-1.06l-7.06,1.06a4.4,4.4,0,0,0-2.44,1.11,3.07,3.07,0,0,0-.92,2.35,3.19,3.19,0,0,0,1,2.35A3.71,3.71,0,0,0,1363.22,876Z" style="fill:#2b2b2b"/><path d="M1422.45,871.92l7.34-26.92h4.85L1425,879h-4.85l-8.88-27.6-8.79,27.6h-4.7l-9.84-34h4.85l7.49,26.64,8.54-26.64h4.94Z" style="fill:#2b2b2b"/><path d="M1452.55,871.11l3.89,1.34a10.23,10.23,0,0,1-3.75,5.26,10.75,10.75,0,0,1-6.62,2,11.28,11.28,0,0,1-8.24-3.34,13.48,13.48,0,0,1-.11-17.73,11.08,11.08,0,0,1,15.93-.17,12.77,12.77,0,0,1,2.93,8.81,8.39,8.39,0,0,1-.1,1.44h-17.37a6.92,6.92,0,0,0,2,5,6.72,6.72,0,0,0,4.92,2A6.25,6.25,0,0,0,1452.55,871.11Zm-13.3-6h12.63a5.81,5.81,0,0,0-6.34-5.9,6,6,0,0,0-4.42,1.75A6.3,6.3,0,0,0,1439.25,865.11Z" style="fill:#2b2b2b"/><path d="M1465.6,879h-4.46V844.28h4.46v14.93a7.18,7.18,0,0,1,2.91-2.81,9.42,9.42,0,0,1,4.72-1.13,9.56,9.56,0,0,1,7.83,3.41,14.93,14.93,0,0,1-.1,17.49,9.67,9.67,0,0,1-7.87,3.48c-3.46,0-5.95-1.32-7.49-4Zm11.76-5.66a9.11,9.11,0,0,0,1.87-6,8.88,8.88,0,0,0-1.84-5.93,6.18,6.18,0,0,0-5-2.19,6.27,6.27,0,0,0-5,2.21,8.68,8.68,0,0,0-1.92,5.91,9,9,0,0,0,1.92,6,6.17,6.17,0,0,0,5,2.28A6.09,6.09,0,0,0,1477.36,873.37Z" style="fill:#2b2b2b"/><path d="M1503.62,879.75a16.56,16.56,0,0,1-11.93-4.8q-5-4.8-5-13a18.13,18.13,0,0,1,2.5-9.6,16.09,16.09,0,0,1,6.29-6.12,17.13,17.13,0,0,1,8.11-2,16,16,0,0,1,9.72,2.9,13.74,13.74,0,0,1,5.25,7.9l-4.36,1.53a10.37,10.37,0,0,0-3.7-5.93,11.07,11.07,0,0,0-6.91-2.08,11.7,11.7,0,0,0-8.55,3.52c-2.36,2.36-3.55,5.64-3.55,9.87s1.19,7.52,3.55,9.89a11.65,11.65,0,0,0,8.55,3.55,10.83,10.83,0,0,0,7-2.23,11.75,11.75,0,0,0,3.89-5.93l4.17,1.53a14.67,14.67,0,0,1-5.35,8A15.54,15.54,0,0,1,1503.62,879.75Z" style="fill:#2b2b2b"/><path d="M1523.66,858.7a12,12,0,0,1,16.94,0,12.13,12.13,0,0,1,3.34,8.76,12.3,12.3,0,0,1-3.31,8.81,12.12,12.12,0,0,1-17,0,12.3,12.3,0,0,1-3.31-8.81A12.13,12.13,0,0,1,1523.66,858.7Zm3.36,14.83a7.06,7.06,0,0,0,10.22,0,9.79,9.79,0,0,0,0-12.09,7.06,7.06,0,0,0-10.22,0,9.79,9.79,0,0,0,0,12.09Z" style="fill:#2b2b2b"/><path d="M1553,879h-4.46V855.94h4.32V859a6.94,6.94,0,0,1,3-2.78,8.93,8.93,0,0,1,4-1,8,8,0,0,1,4.12,1.1,6.72,6.72,0,0,1,2.79,3.27,8.17,8.17,0,0,1,7.73-4.37,7.81,7.81,0,0,1,5.64,2.26c1.55,1.5,2.32,3.68,2.32,6.52v15H1578v-14.5a5.76,5.76,0,0,0-1.22-3.84,4.56,4.56,0,0,0-3.68-1.44,4.93,4.93,0,0,0-3.84,1.66,6,6,0,0,0-1.48,4.15v14h-4.52v-14.5a5.71,5.71,0,0,0-1.22-3.84,4.56,4.56,0,0,0-3.67-1.44,5,5,0,0,0-3.89,1.63,6.05,6.05,0,0,0-1.49,4.23Z" style="fill:#2b2b2b"/><path d="M1592.9,888.15h-4.47V855.94h4.37v3.6a7.67,7.67,0,0,1,3-3,9.28,9.28,0,0,1,4.7-1.16,9.55,9.55,0,0,1,7.8,3.41,14.63,14.63,0,0,1-.1,17.38,9.71,9.71,0,0,1-7.84,3.45,9.48,9.48,0,0,1-4.52-1,7.65,7.65,0,0,1-3-2.69Zm13.63-20.69a8.9,8.9,0,0,0-1.85-5.78,6.06,6.06,0,0,0-5-2.28,6.14,6.14,0,0,0-5,2.28,8.71,8.71,0,0,0-1.9,5.78,8.86,8.86,0,0,0,1.9,5.88,6.52,6.52,0,0,0,9.91,0A9,9,0,0,0,1606.53,867.46Z" style="fill:#2b2b2b"/><path d="M1617.11,858.7a12.06,12.06,0,0,1,17,0,13.28,13.28,0,0,1,0,17.57,12.11,12.11,0,0,1-17,0,13.28,13.28,0,0,1,0-17.57Zm3.36,14.83a7.07,7.07,0,0,0,10.23,0,9.79,9.79,0,0,0,0-12.09,7.07,7.07,0,0,0-10.23,0,9.82,9.82,0,0,0,0,12.09Z" style="fill:#2b2b2b"/><path d="M1646.46,865.68V879H1642V855.94h4.42v3.31a7.66,7.66,0,0,1,7.1-4,7.55,7.55,0,0,1,6.12,2.54,9.86,9.86,0,0,1,2.14,6.58V879h-4.51V865.16c0-3.87-1.8-5.81-5.38-5.81a4.76,4.76,0,0,0-4,1.8A7.13,7.13,0,0,0,1646.46,865.68Z" style="fill:#2b2b2b"/><path d="M1684,871.11l3.89,1.34a10.21,10.21,0,0,1-3.74,5.26,10.8,10.8,0,0,1-6.63,2,11.27,11.27,0,0,1-8.23-3.34,12,12,0,0,1-3.38-9,12.18,12.18,0,0,1,3.26-8.73,11.09,11.09,0,0,1,15.94-.17q2.93,3.29,2.92,8.81a9.69,9.69,0,0,1-.09,1.44h-17.38a6.92,6.92,0,0,0,2,5,6.73,6.73,0,0,0,4.92,2A6.23,6.23,0,0,0,1684,871.11Zm-13.29-6h12.62a6.11,6.11,0,0,0-1.73-4.25,6.19,6.19,0,0,0-4.61-1.65,5.91,5.91,0,0,0-4.41,1.75A6.26,6.26,0,0,0,1670.66,865.11Z" style="fill:#2b2b2b"/><path d="M1697.06,865.68V879h-4.52V855.94H1697v3.31a7.66,7.66,0,0,1,7.1-4,7.55,7.55,0,0,1,6.12,2.54,9.86,9.86,0,0,1,2.14,6.58V879h-4.51V865.16q0-5.8-5.38-5.81a4.77,4.77,0,0,0-4,1.8A7.12,7.12,0,0,0,1697.06,865.68Z" style="fill:#2b2b2b"/><path d="M1724.37,848.65v7.29h5V860h-5v12a2.74,2.74,0,0,0,3.21,3.17,7.77,7.77,0,0,0,1.78-.19v3.84a9.15,9.15,0,0,1-3.07.43,6.38,6.38,0,0,1-4.71-1.73,6.56,6.56,0,0,1-1.72-4.85V860h-4.42v-4.08h1.25a3.42,3.42,0,0,0,2.66-1,3.7,3.7,0,0,0,.89-2.57v-3.74Z" style="fill:#2b2b2b"/><path d="M1732.24,873l4.08-1.44a4.76,4.76,0,0,0,1.63,3.09,5.47,5.47,0,0,0,3.75,1.23,4.37,4.37,0,0,0,2.88-.89,2.75,2.75,0,0,0,1.05-2.18c0-1.54-1-2.53-3-3l-3.94-.86a7.62,7.62,0,0,1-4.22-2.31,6,6,0,0,1-1.54-4.17,6.68,6.68,0,0,1,2.42-5.14,8.42,8.42,0,0,1,5.79-2.16,11.17,11.17,0,0,1,3.93.65,6.73,6.73,0,0,1,2.69,1.7,9.93,9.93,0,0,1,1.44,2,8.39,8.39,0,0,1,.72,1.87l-4,1.49a5.23,5.23,0,0,0-.34-1.13,6.84,6.84,0,0,0-.74-1.22,3.49,3.49,0,0,0-1.47-1.08,5.76,5.76,0,0,0-2.25-.41,4.17,4.17,0,0,0-2.76.91,2.75,2.75,0,0,0-1.08,2.16c0,1.48.88,2.4,2.64,2.79l3.74.81a8.7,8.7,0,0,1,4.73,2.48,6.26,6.26,0,0,1,1.66,4.39,6.8,6.8,0,0,1-2.24,4.94,8.45,8.45,0,0,1-6.21,2.21,9.65,9.65,0,0,1-6.67-2.14A7.55,7.55,0,0,1,1732.24,873Z" style="fill:#2b2b2b"/><path d="M1755.38,878.31a3.19,3.19,0,0,1-1-2.35,3.29,3.29,0,0,1,1-2.38,3.17,3.17,0,0,1,2.35-1,3.36,3.36,0,0,1,3.36,3.36,3.14,3.14,0,0,1-1,2.35,3.25,3.25,0,0,1-2.37,1A3.19,3.19,0,0,1,1755.38,878.31Z" style="fill:#2b2b2b"/><path d="M840.08,634.56h6.6v9h-6.6v12.65c0,2.79,1.5,3.53,3.74,3.53a12.46,12.46,0,0,0,2.72-.34V668a12.39,12.39,0,0,1-5.37,1c-7,0-11.29-4.15-11.29-10.88V643.6h-6v-9h1.7c3.53,0,5.23-2.38,5.23-5.51V624.7h9.25Z" style="fill:#2b2b2b"/><path d="M882.65,658.63c-1.63,5.84-7,10.74-15.57,10.74-9.32,0-17.61-6.66-17.61-18,0-10.88,8.09-17.81,16.86-17.81,10.47,0,16.93,6.46,16.93,17.34a20.91,20.91,0,0,1-.21,3.19H859.53c.2,3.81,3.67,6.53,7.68,6.53,3.74,0,5.85-1.77,6.8-4.42Zm-9.39-11.22c-.13-2.59-1.9-5.71-6.8-5.71a6.44,6.44,0,0,0-6.73,5.71Z" style="fill:#2b2b2b"/><path d="M888.23,668.35V634.56h9.85v3.87c1.7-3,6.06-4.89,9.73-4.89,4.82,0,8.29,2,10,5.3,2.65-3.81,5.92-5.3,10.47-5.3,6.4,0,12.51,3.74,12.51,12.92v21.89h-10V648.77c0-3.2-1.7-5.71-5.37-5.71a5.49,5.49,0,0,0-5.65,5.78v19.51H909.58V648.77c0-3.2-1.7-5.71-5.44-5.71s-5.58,2.78-5.58,5.84v19.45Z" style="fill:#2b2b2b"/><path d="M947.79,681.27V634.56h10V638c1.42-2.17,5.1-4.28,9.92-4.28,9.8,0,15.71,7.48,15.71,17.61,0,10.34-6.66,17.75-16.11,17.75-4.35,0-7.62-1.5-9.18-3.4v15.57Zm17.82-38.21c-4,0-7.62,2.72-7.62,8.36s3.6,8.43,7.62,8.43,7.68-2.79,7.68-8.43S969.69,643.06,965.61,643.06Z" style="fill:#2b2b2b"/><path d="M988.39,668.35V619.12h10.33v49.23Z" style="fill:#2b2b2b"/><path d="M1013.75,648.84l8-1.23c1.83-.27,2.45-1.15,2.45-2.31,0-2-1.7-3.67-5-3.67a5.44,5.44,0,0,0-5.78,5l-9-1.83c.4-4.83,4.89-11.22,14.82-11.22,11,0,15,6.12,15,13.05v16.52a32.8,32.8,0,0,0,.41,5.24h-9.32a16.43,16.43,0,0,1-.34-3.81c-1.77,2.86-5,4.76-9.52,4.76-7.41,0-11.69-4.89-11.69-10.26C1003.76,653.05,1008.18,649.65,1013.75,648.84Zm10.41,6.25V653.6l-6.4,1c-2.17.34-3.8,1.35-3.8,3.73,0,1.77,1.15,3.47,4,3.47C1021,661.82,1024.16,660.33,1024.16,655.09Z" style="fill:#2b2b2b"/><path d="M1053.26,634.56h6.59v9h-6.59v12.65c0,2.79,1.49,3.53,3.74,3.53a12.46,12.46,0,0,0,2.72-.34V668a12.39,12.39,0,0,1-5.37,1c-7,0-11.29-4.15-11.29-10.88V643.6h-6v-9h1.7c3.53,0,5.23-2.38,5.23-5.51V624.7h9.25Z" style="fill:#2b2b2b"/><path d="M1095.83,658.63c-1.64,5.84-7,10.74-15.58,10.74-9.31,0-17.61-6.66-17.61-18,0-10.88,8.1-17.81,16.87-17.81,10.47,0,16.93,6.46,16.93,17.34a20.91,20.91,0,0,1-.21,3.19h-23.52c.2,3.81,3.67,6.53,7.68,6.53,3.74,0,5.85-1.77,6.8-4.42Zm-9.39-11.22c-.13-2.59-1.9-5.71-6.8-5.71a6.44,6.44,0,0,0-6.73,5.71Z" style="fill:#2b2b2b"/><path d="M813.1,752.74V718h22v7.3H820.84v6.61h12.94v6.81H820.84v6.67h14.31v7.35Z" style="fill:#5e5e5e"/><path d="M840,752.74V717.26h7.45v35.48Z" style="fill:#5e5e5e"/><path d="M874.89,745.73c-1.18,4.22-5,7.74-11.22,7.74-6.71,0-12.69-4.8-12.69-13,0-7.84,5.83-12.84,12.15-12.84,7.54,0,12.2,4.66,12.2,12.5a15.33,15.33,0,0,1-.15,2.3H858.23a5.28,5.28,0,0,0,5.54,4.7c2.69,0,4.21-1.27,4.9-3.18Zm-6.76-8.08c-.1-1.86-1.38-4.12-4.9-4.12a4.63,4.63,0,0,0-4.85,4.12Z" style="fill:#5e5e5e"/><path d="M878.91,752.74V728.39H886v2.79c1.23-2.16,4.36-3.53,7-3.53,3.48,0,6,1.42,7.2,3.82a8.35,8.35,0,0,1,7.55-3.82c4.6,0,9,2.7,9,9.31v15.78h-7.2V738.63c0-2.31-1.23-4.12-3.87-4.12a4,4,0,0,0-4.07,4.17v14.06h-7.35V738.63c0-2.31-1.22-4.12-3.92-4.12a4,4,0,0,0-4,4.21v14Z" style="fill:#5e5e5e"/><path d="M944,745.73c-1.18,4.22-5.05,7.74-11.22,7.74-6.72,0-12.69-4.8-12.69-13,0-7.84,5.83-12.84,12.15-12.84,7.54,0,12.2,4.66,12.2,12.5a15.33,15.33,0,0,1-.15,2.3H927.32c.14,2.74,2.64,4.7,5.53,4.7,2.7,0,4.22-1.27,4.9-3.18Zm-6.77-8.08c-.09-1.86-1.37-4.12-4.89-4.12a4.65,4.65,0,0,0-4.86,4.12Z" style="fill:#5e5e5e"/><path d="M955.44,752.74H948V728.39h7.2v2.79c1.32-2.3,4.31-3.43,6.81-3.43,6.12,0,8.87,4.36,8.87,9.7v15.29h-7.45v-14c0-2.4-1.27-4.21-4-4.21a4,4,0,0,0-4,4.26Z" style="fill:#5e5e5e"/><path d="M984.84,728.39h4.75v6.51h-4.75V744c0,2,1.08,2.54,2.7,2.54a9.13,9.13,0,0,0,2-.24v6.17a8.81,8.81,0,0,1-3.87.69c-5,0-8.14-3-8.14-7.84V734.9h-4.31v-6.51h1.23c2.54,0,3.77-1.72,3.77-4v-3.14h6.66Z" style="fill:#5e5e5e"/><path d="M1009.39,750.29c-1.27,2.1-4.07,3-6.52,3-5.93,0-9.26-4.32-9.26-9.51V728.39h7.45V742.2c0,2.36,1.27,4.22,3.92,4.22a3.89,3.89,0,0,0,4.07-4.17V728.39h7.44v20a37.47,37.47,0,0,0,.25,4.36h-7.15A17.46,17.46,0,0,1,1009.39,750.29Z" style="fill:#5e5e5e"/><path d="M1021.84,752.74V728.39h7.1v2.79c1.23-2.16,4.36-3.53,7-3.53,3.48,0,6,1.42,7.2,3.82a8.35,8.35,0,0,1,7.55-3.82c4.6,0,9,2.7,9,9.31v15.78h-7.2V738.63c0-2.31-1.23-4.12-3.87-4.12a4,4,0,0,0-4.07,4.17v14.06h-7.35V738.63c0-2.31-1.22-4.12-3.92-4.12a4,4,0,0,0-4,4.21v14Z" style="fill:#5e5e5e"/><path d="M1069.46,743.13a5.06,5.06,0,0,1,5,5,5,5,0,1,1-10,0A5,5,0,0,1,1069.46,743.13Z" style="fill:#5e5e5e"/><path d="M1079.56,728.39H1087V754.5c0,4.9-3.09,8.28-8,8.28a9.86,9.86,0,0,1-4.12-.68v-6.18a7.64,7.64,0,0,0,2.21.3,2.25,2.25,0,0,0,2.5-2.5Zm3.67-11.81a4.36,4.36,0,1,1-4.31,4.36A4.35,4.35,0,0,1,1083.23,716.58Z" style="fill:#5e5e5e"/><path d="M1096.66,744.7a3.47,3.47,0,0,0,3.82,3.29c1.91,0,2.84-1,2.84-2.11,0-.88-.59-1.62-2.4-2l-2.79-.64c-5.19-1.12-7.25-4.06-7.25-7.49,0-4.46,3.92-8.09,9.35-8.09,7.06,0,9.51,4.41,9.75,7.25l-6.17,1.13a3.19,3.19,0,0,0-3.48-3c-1.42,0-2.64.84-2.64,2.11,0,1,.83,1.62,1.91,1.81l3.23.64c5.05,1,7.5,4.06,7.5,7.64,0,4.17-3.19,8.23-9.7,8.23-7.65,0-10.1-5-10.29-7.64Z" style="fill:#5e5e5e"/></g><g id="Logo"><rect x="864.82" y="196.64" width="120.5" height="17.46" style="opacity:0.2"/><rect x="899.75" y="231.57" width="108.28" height="17.46" style="opacity:0.5"/><rect x="1020.25" y="196.64" width="34.93" height="17.46" style="opacity:0.2"/><rect x="985.32" y="196.64" width="34.93" height="17.46" style="opacity:0.5"/><rect x="829.89" y="406.21" width="60.25" height="17.46" style="opacity:0.2"/><rect x="864.82" y="266.5" width="60.25" height="17.46" style="opacity:0.2"/><rect x="934.68" y="301.43" width="120.5" height="17.46" style="opacity:0.2"/><rect x="934.68" y="336.35" width="73.35" height="17.46" style="opacity:0.5"/><rect x="864.82" y="301.43" width="34.93" height="17.46" style="opacity:0.2"/><rect x="899.75" y="301.43" width="34.93" height="17.46" style="opacity:0.5"/><rect x="864.82" y="371.28" width="60.25" height="17.46" style="opacity:0.2"/><rect x="899.75" y="336.35" width="34.93" height="17.46" style="opacity:0.2"/><rect x="829.89" y="161.71" width="50.65" height="17.46" style="opacity:0.2"/><rect x="985.32" y="161.71" width="104.78" height="17.46" style="opacity:0.2"/><rect x="915.47" y="161.71" width="34.93" height="17.46" style="opacity:0.2"/><rect x="880.54" y="161.71" width="34.93" height="17.46" style="opacity:0.5"/><rect x="950.39" y="161.71" width="34.93" height="17.46" style="opacity:0.5"/><g style="opacity:0.30000000000000004"><polyline points="1150.36 468.05 1150.36 483.05 1135.36 483.05" style="fill:none;stroke:#000;stroke-miterlimit:10;stroke-width:7px"/><line x1="1103.47" y1="483.05" x2="800.58" y2="483.05" style="fill:none;stroke:#000;stroke-miterlimit:10;stroke-width:7px;stroke-dasharray:31.88324737548828,31.88324737548828"/><polyline points="784.64 483.05 769.64 483.05 769.64 468.05" style="fill:none;stroke:#000;stroke-miterlimit:10;stroke-width:7px"/><line x1="769.64" y1="436.17" x2="769.64" y2="133.28" style="fill:none;stroke:#000;stroke-miterlimit:10;stroke-width:7px;stroke-dasharray:31.88324737548828,31.88324737548828"/><polyline points="769.64 117.33 769.64 102.33 784.64 102.33" style="fill:none;stroke:#000;stroke-miterlimit:10;stroke-width:7px"/><line x1="816.53" y1="102.34" x2="1119.42" y2="102.34" style="fill:none;stroke:#000;stroke-miterlimit:10;stroke-width:7px;stroke-dasharray:31.88324737548828,31.88324737548828"/><polyline points="1135.36 102.33 1150.36 102.33 1150.36 117.33" style="fill:none;stroke:#000;stroke-miterlimit:10;stroke-width:7px"/><line x1="1150.36" y1="149.22" x2="1150.36" y2="452.11" style="fill:none;stroke:#000;stroke-miterlimit:10;stroke-width:7px;stroke-dasharray:31.88324737548828,31.88324737548828"/></g></g></g></svg>